<mxfile host="65bd71144e">
    <diagram id="weDBewMh5VwppxCdh-sN" name="Page-1">
        <mxGraphModel dx="1326" dy="1249" grid="1" gridSize="10" guides="1" tooltips="1" connect="1" arrows="1" fold="1" page="1" pageScale="1" pageWidth="850" pageHeight="1100" math="0" shadow="0">
            <root>
                <mxCell id="0"/>
                <mxCell id="1" parent="0"/>
                <mxCell id="2" value="getRequestedPage" style="shape=ext;double=1;rounded=0;whiteSpace=wrap;html=1;" parent="1" vertex="1">
                    <mxGeometry x="160" y="80" width="160" height="80" as="geometry"/>
                </mxCell>
                <mxCell id="3" value="showResponsePage" style="shape=ext;double=1;rounded=0;whiteSpace=wrap;html=1;" parent="1" vertex="1">
                    <mxGeometry x="160" y="160" width="160" height="80" as="geometry"/>
                </mxCell>
                <mxCell id="4" value="" style="shape=flexArrow;endArrow=classic;html=1;exitX=1;exitY=0.5;exitDx=0;exitDy=0;" parent="1" source="2" edge="1">
                    <mxGeometry width="50" height="50" relative="1" as="geometry">
                        <mxPoint x="320" y="150" as="sourcePoint"/>
                        <mxPoint x="600" y="120" as="targetPoint"/>
                    </mxGeometry>
                </mxCell>
                <mxCell id="7" value="Find file on server?" style="verticalLabelPosition=middle;verticalAlign=top;html=1;shape=mxgraph.basic.acute_triangle;dx=0.5;direction=west;labelPosition=center;align=center;" parent="1" vertex="1">
                    <mxGeometry x="600" y="80" width="160" height="80" as="geometry"/>
                </mxCell>
                <mxCell id="8" value="yes" style="verticalLabelPosition=middle;verticalAlign=bottom;html=1;shape=mxgraph.basic.orthogonal_triangle;labelPosition=center;align=center;" parent="1" vertex="1">
                    <mxGeometry x="600" y="80" width="80" height="80" as="geometry"/>
                </mxCell>
                <mxCell id="9" value="no" style="verticalLabelPosition=middle;verticalAlign=bottom;html=1;shape=mxgraph.basic.orthogonal_triangle;labelPosition=center;align=center;direction=north;" parent="1" vertex="1">
                    <mxGeometry x="680" y="80" width="80" height="80" as="geometry"/>
                </mxCell>
                <mxCell id="10" value="Load page" style="shape=ext;double=1;rounded=0;whiteSpace=wrap;html=1;" parent="1" vertex="1">
                    <mxGeometry x="520" y="160" width="160" height="80" as="geometry"/>
                </mxCell>
                <mxCell id="11" value="Load error" style="shape=ext;double=1;rounded=0;whiteSpace=wrap;html=1;" parent="1" vertex="1">
                    <mxGeometry x="680" y="160" width="160" height="80" as="geometry"/>
                </mxCell>
                <mxCell id="12" value="" style="shape=flexArrow;endArrow=classic;html=1;exitX=0;exitY=0.5;exitDx=0;exitDy=0;entryX=1;entryY=0.5;entryDx=0;entryDy=0;" edge="1" parent="1" source="10" target="3">
                    <mxGeometry width="50" height="50" relative="1" as="geometry">
                        <mxPoint x="580" y="290" as="sourcePoint"/>
                        <mxPoint x="600" y="320" as="targetPoint"/>
                    </mxGeometry>
                </mxCell>
                <mxCell id="13" value="Document start" style="shape=ext;double=1;rounded=0;whiteSpace=wrap;html=1;" vertex="1" parent="1">
                    <mxGeometry x="160" y="340" width="160" height="80" as="geometry"/>
                </mxCell>
                <mxCell id="14" value="Show head" style="shape=ext;double=1;rounded=0;whiteSpace=wrap;html=1;" vertex="1" parent="1">
                    <mxGeometry x="160" y="420" width="160" height="80" as="geometry"/>
                </mxCell>
                <mxCell id="15" value="Show body" style="shape=ext;double=1;rounded=0;whiteSpace=wrap;html=1;" vertex="1" parent="1">
                    <mxGeometry x="160" y="500" width="160" height="80" as="geometry"/>
                </mxCell>
                <mxCell id="16" value="Document end" style="shape=ext;double=1;rounded=0;whiteSpace=wrap;html=1;" vertex="1" parent="1">
                    <mxGeometry x="160" y="580" width="160" height="80" as="geometry"/>
                </mxCell>
                <mxCell id="17" value="" style="shape=flexArrow;endArrow=classic;html=1;exitX=-0.008;exitY=0.592;exitDx=0;exitDy=0;exitPerimeter=0;" edge="1" parent="1" source="15">
                    <mxGeometry width="50" height="50" relative="1" as="geometry">
                        <mxPoint x="110" y="570" as="sourcePoint"/>
                        <mxPoint x="80" y="660" as="targetPoint"/>
                    </mxGeometry>
                </mxCell>
                <mxCell id="18" value="Show header content" style="shape=ext;double=1;rounded=0;whiteSpace=wrap;html=1;" vertex="1" parent="1">
                    <mxGeometry y="660" width="160" height="80" as="geometry"/>
                </mxCell>
                <mxCell id="19" value="Show body content" style="shape=ext;double=1;rounded=0;whiteSpace=wrap;html=1;" vertex="1" parent="1">
                    <mxGeometry y="740" width="160" height="80" as="geometry"/>
                </mxCell>
                <mxCell id="20" value="Show footer content" style="shape=ext;double=1;rounded=0;whiteSpace=wrap;html=1;" vertex="1" parent="1">
                    <mxGeometry y="820" width="160" height="80" as="geometry"/>
                </mxCell>
                <mxCell id="22" value="" style="shape=flexArrow;endArrow=classic;html=1;exitX=0.5;exitY=1;exitDx=0;exitDy=0;entryX=0.5;entryY=0;entryDx=0;entryDy=0;" edge="1" parent="1" source="3" target="13">
                    <mxGeometry width="50" height="50" relative="1" as="geometry">
                        <mxPoint x="-120" y="260" as="sourcePoint"/>
                        <mxPoint x="-120" y="340" as="targetPoint"/>
                    </mxGeometry>
                </mxCell>
            </root>
        </mxGraphModel>
    </diagram>
</mxfile>